<svg xmlns="http://www.w3.org/2000/svg" viewBox="0 0 200 200" preserveAspectRatio="none">
  <rect width="200" height="200" fill="#8B6F47"/>
  <g stroke="#6B5230" stroke-width="0.8" opacity="0.55" fill="none">
    <path d="M0 26 Q50 24 100 28 T200 26"/>
    <path d="M0 62 Q50 65 100 60 T200 62"/>
    <path d="M0 102 Q50 100 100 105 T200 102"/>
    <path d="M0 142 Q50 145 100 140 T200 142"/>
    <path d="M0 178 Q50 176 100 180 T200 178"/>
  </g>
  <g stroke="#5A4326" stroke-width="0.5" opacity="0.65" fill="none">
    <path d="M0 42 Q40 40 100 44 T200 42"/>
    <path d="M0 82 Q40 84 100 80 T200 82"/>
    <path d="M0 122 Q60 124 120 120 T200 122"/>
    <path d="M0 162 Q40 164 100 160 T200 162"/>
  </g>
  <!-- Subtle vignette in corners for depth -->
  <radialGradient id="vg" cx="50%" cy="50%" r="75%">
    <stop offset="60%" stop-color="#000" stop-opacity="0"/>
    <stop offset="100%" stop-color="#000" stop-opacity="0.35"/>
  </radialGradient>
  <rect width="200" height="200" fill="url(#vg)"/>
</svg>
