<svg xmlns="http://www.w3.org/2000/svg" viewBox="0 0 240 260">
  <!-- Floor shadow -->
  <ellipse cx="120" cy="246" rx="100" ry="6" fill="#000" opacity="0.22"/>
  <!-- Stack: bottom-most to upper, slightly offset and rotated for messy look -->
  <g>
    <rect x="14" y="208" width="208" height="34" fill="#E4DEC9" stroke="#A89570" stroke-width="0.8" transform="rotate(2 120 225)"/>
    <rect x="22" y="178" width="208" height="34" fill="#EAE3D1" stroke="#A89570" stroke-width="0.8" transform="rotate(-1.6 120 195)"/>
    <rect x="10" y="148" width="208" height="34" fill="#EDE7D6" stroke="#A89570" stroke-width="0.8" transform="rotate(1.2 120 165)"/>
    <rect x="24" y="118" width="208" height="34" fill="#F1ECDC" stroke="#A89570" stroke-width="0.8" transform="rotate(-2 120 135)"/>
    <rect x="14" y="88" width="208" height="34" fill="#F4EFE1" stroke="#A89570" stroke-width="0.8" transform="rotate(1.6 120 105)"/>
    <rect x="22" y="60" width="208" height="34" fill="#F7F2E6" stroke="#A89570" stroke-width="0.8" transform="rotate(-1.2 120 77)"/>
    <rect x="16" y="34" width="208" height="34" fill="#FAF5EA" stroke="#A89570" stroke-width="0.8" transform="rotate(0.8 120 51)"/>
    <!-- Paper clip on top sheet -->
    <path d="M50 32 L50 14 Q50 8 56 8 L66 8 Q72 8 72 14 L72 30 Q72 34 68 34 L60 34"
          stroke="#9098A4" stroke-width="2.5" fill="none" stroke-linecap="round"/>
  </g>
</svg>
